<?xml version="1.0" encoding="UTF-8"?>
<svg version="1.1" xmlns="http://www.w3.org/2000/svg" width="64" height="64">
<path d="M0 0 C3 0.25 3 0.25 5 2.25 C5.125 5.375 5.125 5.375 5 8.25 C5.86625 8.1675 6.7325 8.085 7.625 8 C12.58584989 8.36747036 15.3715449 10.67582674 18.875 14.0625 C20.46805441 17.1601058 20.19750798 19.82652826 20 23.25 C19.01 23.58 18.02 23.91 17 24.25 C16.95101562 25.1678125 16.90203125 26.085625 16.8515625 27.03125 C15.78970917 44.46029083 15.78970917 44.46029083 12 48.25 C8.04053109 48.73281258 4.04805689 48.62038975 0.0625 48.625 C-1.04802734 48.64949219 -2.15855469 48.67398438 -3.30273438 48.69921875 C-4.36685547 48.70308594 -5.43097656 48.70695312 -6.52734375 48.7109375 C-7.99288696 48.72326416 -7.99288696 48.72326416 -9.48803711 48.73583984 C-12 48.25 -12 48.25 -13.79638672 46.42382812 C-15.44409657 43.44792377 -15.76401474 40.74116491 -16.1875 37.375 C-16.34605469 36.18132813 -16.50460938 34.98765625 -16.66796875 33.7578125 C-16.97065616 30.56000909 -17.06378977 27.45911593 -17 24.25 C-17.99 23.92 -18.98 23.59 -20 23.25 C-20.42397033 19.01029672 -20.43792242 16.26657823 -17.75 12.9375 C-14.21230891 9.48021098 -12.69056088 8.31502157 -7.75 8.125 C-6.38875 8.186875 -6.38875 8.186875 -5 8.25 C-5.04125 7.30125 -5.0825 6.3525 -5.125 5.375 C-4.95580103 1.14502578 -4.21852231 0.35154353 0 0 Z " fill="#FEA400" transform="translate(32,4.75)"/>
<path d="M0 0 C3 0.25 3 0.25 5 2.25 C5.125 5.375 5.125 5.375 5 8.25 C5.86625 8.1675 6.7325 8.085 7.625 8 C12.58584989 8.36747036 15.3715449 10.67582674 18.875 14.0625 C20.48258003 17.18835006 20.26069343 19.79581208 20 23.25 C18.15723491 25.09276509 15.57036241 24.37874411 13.11865234 24.38894653 C12.29574707 24.3869223 11.4728418 24.38489807 10.625 24.3828125 C9.78533691 24.38376923 8.94567383 24.38472595 8.08056641 24.38571167 C6.30175705 24.38639348 4.52294523 24.38453917 2.74414062 24.38037109 C0.01166224 24.37502283 -2.72065176 24.38031605 -5.453125 24.38671875 C-7.1770837 24.38605797 -8.90104229 24.38477681 -10.625 24.3828125 C-11.44790527 24.38483673 -12.27081055 24.38686096 -13.11865234 24.38894653 C-18.88504946 24.36495054 -18.88504946 24.36495054 -20 23.25 C-20.37794846 20.03743812 -20.66110143 17.41882733 -19.0234375 14.5234375 C-16.73473983 11.67309623 -14.52541914 9.31830883 -11 8.25 C-7.75 8.125 -7.75 8.125 -5 8.25 C-5.04125 7.30125 -5.0825 6.3525 -5.125 5.375 C-4.95580103 1.14502578 -4.21852231 0.35154353 0 0 Z " fill="#9C34C1" transform="translate(32,4.75)"/>
<path d="M0 0 C2.0826461 -0.00218638 4.16476195 -0.02036316 6.24731445 -0.03930664 C8.22634766 -0.04220703 8.22634766 -0.04220703 10.24536133 -0.04516602 C11.4505542 -0.0492749 12.65574707 -0.05338379 13.89746094 -0.05761719 C17.08059047 0.17971619 19.29266683 0.82096222 22.15551758 2.18530273 C21.82551758 3.17530273 21.49551758 4.16530273 21.15551758 5.18530273 C16.08195901 7.28108374 9.69151936 6.37123914 4.31103516 6.37060547 C2.22838906 6.37279185 0.14627321 6.39096863 -1.9362793 6.40991211 C-3.9153125 6.4128125 -3.9153125 6.4128125 -5.93432617 6.41577148 C-7.13951904 6.41988037 -8.34471191 6.42398926 -9.58642578 6.42822266 C-12.76955531 6.19088928 -14.98163168 5.54964324 -17.84448242 4.18530273 C-17.51448242 3.19530273 -17.18448242 2.20530273 -16.84448242 1.18530273 C-11.77092385 -0.91047828 -5.3804842 -0.00063367 0 0 Z " fill="#000000" transform="translate(29.844482421875,57.814697265625)"/>
<path d="M0 0 C0.78375 0.165 1.5675 0.33 2.375 0.5 C4.88208039 1.0623707 4.88208039 1.0623707 7 1 C8.32 1 9.64 1 11 1 C10.74443878 3.58567818 10.47122959 6.16739048 10.1875 8.75 C10.11724609 9.47960938 10.04699219 10.20921875 9.97460938 10.9609375 C9.12247984 18.45967742 9.12247984 18.45967742 6 21 C2.86328125 21.390625 2.86328125 21.390625 -0.6875 21.25 C-2.45673828 21.19585937 -2.45673828 21.19585937 -4.26171875 21.140625 C-5.16535156 21.09421875 -6.06898437 21.0478125 -7 21 C-6.625 19.0625 -6.625 19.0625 -6 17 C-3.04335481 15.5216774 -0.25770263 15.93967217 3 16 C3.33 12.7 3.66 9.4 4 6 C2.35 5.67 0.7 5.34 -1 5 C-0.67 3.35 -0.34 1.7 0 0 Z " fill="#DB8D00" transform="translate(38,32)"/>
<path d="M0 0 C-0.0625 2.1875 -0.0625 2.1875 -1 5 C-2.5546875 6.234375 -2.5546875 6.234375 -4.4375 7.4375 C-7.41049011 9.35044855 -7.94658548 9.87691436 -9.4375 13.3125 C-9.623125 14.199375 -9.80875 15.08625 -10 16 C-11.32 15.67 -12.64 15.34 -14 15 C-14.42397033 10.76029672 -14.43792242 8.01657823 -11.75 4.6875 C-7.76573838 0.79378978 -5.56889233 -0.30938291 0 0 Z " fill="#B970D2" transform="translate(26,13)"/>
<path d="M0 0 C3 0.25 3 0.25 5 2.25 C5.3125 5.25 5.3125 5.25 5 8.25 C2 10.25 2 10.25 -1.125 9.9375 C-4 9.25 -4 9.25 -5 8.25 C-5.1875 5.3125 -5.1875 5.3125 -5 2.25 C-3 0.25 -3 0.25 0 0 Z " fill="#FA3B50" transform="translate(32,4.75)"/>
<path d="M0 0 C3.3 0 6.6 0 10 0 C8 4 8 4 5.5625 4.9375 C3 5 3 5 1.1875 3.6875 C0 2 0 2 0 0 Z " fill="#9F38BA" transform="translate(27,41)"/>
<path d="M0 0 C1.65 0.33 3.3 0.66 5 1 C4.67 2.65 4.34 4.3 4 6 C2.35 5.67 0.7 5.34 -1 5 C-0.67 3.35 -0.34 1.7 0 0 Z " fill="#A943A6" transform="translate(38,32)"/>
<path d="M0 0 C1.65 0.33 3.3 0.66 5 1 C4.67 2.65 4.34 4.3 4 6 C2.35 5.67 0.7 5.34 -1 5 C-0.67 3.35 -0.34 1.7 0 0 Z " fill="#AA43A6" transform="translate(22,32)"/>
<path d="M0 0 C-0.33 1.65 -0.66 3.3 -1 5 C-1.598125 4.814375 -2.19625 4.62875 -2.8125 4.4375 C-5.16408762 3.77906313 -5.16408762 3.77906313 -8 5 C-7.625 3.0625 -7.625 3.0625 -7 1 C-4.53721199 -0.231394 -2.7204945 -0.07159196 0 0 Z " fill="#B86DD5" transform="translate(26,13)"/>
<path d="M0 0 C0.99 0.33 1.98 0.66 3 1 C3 1.66 3 2.32 3 3 C0.6875 4.6875 0.6875 4.6875 -2 6 C-2.99 5.67 -3.98 5.34 -5 5 C-3.35 3.35 -1.7 1.7 0 0 Z " fill="#F7EEFA" transform="translate(21,16)"/>
</svg>
