<svg width="101" height="100" viewBox="0 0 101 100" fill="none" xmlns="http://www.w3.org/2000/svg">
<g clip-path="url(#clip0_431_381)">
<path d="M50.5 100C78.1142 100 100.5 77.6142 100.5 50C100.5 22.3858 78.1142 0 50.5 0C22.8858 0 0.5 22.3858 0.5 50C0.5 77.6142 22.8858 100 50.5 100Z" fill="#1976D2"/>
<path d="M62.9564 66.4348L66.9388 62.4523L61.6892 57.2026L57.7067 61.1851L62.9564 66.4348Z" fill="#2B3B4E"/>
<path d="M41.5398 69.0233C56.9946 69.0233 69.5232 56.4946 69.5232 41.0398C69.5232 25.585 56.9946 13.0563 41.5398 13.0563C26.0849 13.0563 13.5563 25.585 13.5563 41.0398C13.5563 56.4946 26.0849 69.0233 41.5398 69.0233Z" fill="#324A5E"/>
<path d="M67.4949 60.4175L60.8978 67.0146C60.7796 67.1327 60.7796 67.3493 60.8978 67.4675L76.3763 82.946C76.4945 83.0642 76.7111 83.0642 76.8293 82.946L83.4263 76.3489C83.5445 76.2308 83.5445 76.0142 83.4263 75.896L67.9478 60.4175C67.8297 60.2796 67.6327 60.2796 67.4949 60.4175Z" fill="#FF7058"/>
<path d="M41.5398 64.1197C54.2865 64.1197 64.6197 53.7865 64.6197 41.0398C64.6197 28.2931 54.2865 17.9598 41.5398 17.9598C28.7931 17.9598 18.4598 28.2931 18.4598 41.0398C18.4598 53.7865 28.7931 64.1197 41.5398 64.1197Z" fill="#54C0EB"/>
<path d="M64.6197 41.0398C64.6197 49.7637 59.7753 57.3651 52.6268 61.284V61.2643C52.7844 59.6691 53.1585 58.0937 53.7493 56.6168C53.8281 56.4198 53.9265 56.1835 53.8281 55.9669C53.769 55.8094 53.6115 55.6912 53.4736 55.5927C52.1936 54.5687 51.9966 52.7176 51.6225 51.1225C51.5634 50.8665 51.4846 50.6105 51.2877 50.4332C51.1499 50.3151 50.9923 50.256 50.8151 50.1969C49.8895 49.9212 48.9246 49.8424 47.999 49.5667C47.0734 49.2713 46.1676 48.7003 45.8525 47.8141C45.4193 46.6128 46.1085 45.3328 46.3645 44.0725C46.463 43.5407 46.4827 42.9894 46.4236 42.4576C46.3842 42.1426 46.3251 41.8078 46.5024 41.5518C46.6008 41.3942 46.7781 41.2958 46.9553 41.1973C48.6095 40.2914 50.3228 39.3462 52.2133 39.1493C52.8041 39.0902 53.4539 39.1099 53.9265 39.4643C54.2613 39.74 54.4779 40.1536 54.8324 40.3899C55.2263 40.6459 55.7186 40.6853 56.1715 40.6656C57.6288 40.6656 59.0861 40.4687 60.5039 40.1142C60.7993 40.0354 61.1144 39.937 61.2523 39.681C61.5083 39.228 61.0947 38.6963 60.6812 38.4009C59.7556 37.7511 58.5937 37.4557 57.4516 37.5738C57.2152 37.5935 56.9395 37.6329 56.7229 37.5148C56.5457 37.4163 56.4275 37.2194 56.3291 37.0421C55.7777 36.1756 54.793 35.5455 53.7493 35.5849C52.7253 35.6242 51.7209 36.412 51.5831 37.436C51.5043 38.0465 51.6028 38.8736 51.012 39.0705C50.8151 39.1296 50.6182 39.1099 50.4212 39.0705C49.7517 38.9523 49.0427 38.7751 48.5307 38.3222C48.0187 37.8692 47.743 37.0618 48.0975 36.471C49.0427 36.2741 49.988 35.9787 50.8938 35.6046C50.6181 35.191 50.3425 34.7775 50.0668 34.3836C49.9683 34.2261 49.8698 34.0685 49.8698 33.8913C49.9289 33.2611 51.0711 33.4974 51.3862 32.9657C51.524 32.7491 51.4846 32.434 51.6422 32.2371C51.7603 32.0992 51.977 32.0599 52.1739 32.0205C53.1585 31.8629 54.1432 31.7251 55.1278 31.5675C55.8367 31.4691 56.6441 31.2721 56.9592 30.642C57.0577 30.445 57.0971 30.189 57.1955 29.9921C57.5697 29.2635 58.6725 29.2438 59.1648 28.5939C58.515 28.8302 57.806 28.8696 57.1365 28.6924C57.3925 28.1607 57.6485 27.5699 57.5697 26.9791C57.4712 26.3883 56.8608 25.8369 56.3094 26.0536C55.7383 26.2702 55.6398 27.0382 55.6595 27.6684C55.6595 28.2394 55.6792 28.8105 55.6792 29.4013C55.6792 29.677 55.6792 29.9724 55.502 30.189C55.1475 30.642 54.3992 30.386 53.9068 30.0906C53.769 30.5829 53.0404 30.5435 52.6465 30.2284C51.8194 29.5589 51.7997 28.1213 52.6071 27.432C52.8828 27.1957 53.257 26.9988 53.3161 26.6443C53.3751 26.3686 53.2176 26.0535 53.3751 25.8369C53.4736 25.6794 53.6902 25.64 53.8675 25.6006C55.0096 25.3052 55.8564 24.2615 56.0731 23.1193C61.2916 27.3533 64.6197 33.7928 64.6197 41.0398Z" fill="white"/>
<path d="M44.986 22.1544C44.7103 22.5482 44.3559 22.883 44.1392 23.3359C43.9817 23.6707 43.9029 24.0449 43.7257 24.36C43.0167 25.5612 40.8702 25.6006 40.6142 26.9791C40.5551 27.2942 40.6142 27.629 40.4764 27.9047C40.2991 28.2395 39.8856 28.3773 39.5311 28.3379C38.4874 28.2001 38.0345 26.92 38.0739 25.8763C38.1132 24.8326 38.3692 23.6904 37.8572 22.7846C37.3846 21.9378 36.4 21.5636 35.5729 21.0319C34.9033 20.5987 34.2534 19.87 34.2534 19.1217C36.5378 18.3537 38.9994 17.9401 41.5398 17.9401C42.9774 17.9401 44.3755 18.078 45.7343 18.3143C45.8131 19.6928 45.7343 21.0713 44.986 22.1544Z" fill="white"/>
<path d="M36.0061 31.8039C35.8879 32.2962 35.4744 32.7491 34.9624 32.7688C34.6276 32.7688 34.2338 32.5916 33.9777 32.8279C33.7808 33.0248 33.8202 33.3399 33.8399 33.6156C33.8793 34.3049 33.5839 34.9744 33.0719 35.4273C32.7962 35.6637 32.4417 35.8409 32.1857 36.1166C31.8509 36.4711 31.6934 36.9437 31.4768 37.3966C30.4724 39.4644 28.2275 40.5672 26.0416 41.3155C25.3523 41.5518 24.5843 41.8472 24.3086 42.5167C24.092 43.0484 24.3086 43.7377 24.8206 44.0331C25.3129 44.3285 26.0219 44.23 26.396 43.7771C26.4551 44.4466 26.5536 45.1753 26.9868 45.707C27.2428 46.0221 27.617 46.2387 27.9124 46.5341C28.2078 46.8295 28.4441 47.2627 28.3062 47.6369C27.873 47.9716 27.1837 47.8929 26.849 47.4596C26.5733 47.0855 26.5536 46.5735 26.2582 46.1993C25.7068 45.5297 24.6631 45.8054 23.8163 45.7267C22.3787 45.6085 21.1971 44.1512 21.3744 42.7334C21.3941 42.4971 21.4531 42.241 21.3153 42.0441C21.2168 41.8866 21.0199 41.8275 20.8427 41.7487C20.2913 41.5124 19.8383 41.0792 19.5823 40.5278C19.4445 40.2324 19.3657 39.9173 19.1491 39.681C18.9718 39.5037 18.7552 39.3856 18.5189 39.3068C19.1885 30.2678 25.0569 22.6861 33.131 19.5156C33.19 20.1063 33.0719 20.7168 32.5796 20.9728C32.4417 21.0516 32.2645 21.0713 32.1463 21.1895C31.9297 21.3864 31.9494 21.7605 32.1266 21.9969C32.3039 22.2529 32.5599 22.3907 32.8159 22.5483C34.1747 23.395 35.3562 24.8129 35.2972 26.4277C35.2775 26.9201 35.0805 27.4518 34.6276 27.6487C34.2731 27.7865 33.899 27.6881 33.5445 27.5502C33.0128 27.3533 32.422 27.0382 32.3432 26.4868C32.2842 26.1323 32.4417 25.7976 32.4614 25.4431C32.4811 25.0886 32.2448 24.6554 31.8903 24.7342C31.6146 24.7932 31.4965 25.1083 31.4965 25.384C31.4965 25.6597 31.5752 25.9354 31.5161 26.2111C31.4177 26.605 31.0238 26.8413 30.6694 27.0382C30.2952 27.2351 29.921 27.4518 29.5469 27.6684C29.0152 27.9638 28.4638 28.2789 28.1487 28.7909C27.8336 29.3029 27.8336 30.0709 28.3259 30.4254C28.5819 30.6026 28.9167 30.642 29.1727 30.8389C29.5666 31.1343 29.6059 31.7054 29.8029 32.1583C29.9998 32.6113 30.6103 32.9854 30.9451 32.631C31.0435 32.5325 31.0829 32.375 31.1026 32.2371C31.2208 31.6069 31.142 30.9374 31.1617 30.2875C31.1814 29.6377 31.3586 28.9484 31.8509 28.5349C32.3432 28.1213 33.2294 28.141 33.5248 28.7121C33.5839 28.8303 33.6233 28.9681 33.702 29.0666C34.0762 29.5786 34.9821 29.0469 35.5138 29.4013C35.7895 29.5786 35.8879 29.9527 35.947 30.2875C36.0258 30.7798 36.1243 31.3115 36.0061 31.8039Z" fill="white"/>
<path d="M40.1613 54.4899C39.7084 55.0413 39.7477 55.829 39.5508 56.4986C39.0782 58.271 37.2271 59.2753 36.1243 60.7326C35.8683 61.0673 35.6319 61.4612 35.2775 61.6975C34.9427 61.9141 34.5292 62.0126 34.2338 62.2883C34.0762 62.4458 33.9581 62.6231 33.8793 62.8397C32.9537 62.5246 32.0676 62.1307 31.2011 61.6975C31.2011 61.2643 31.2208 60.831 31.2798 60.3978C31.4374 59.1768 31.8115 57.9165 31.3586 56.7743C30.9451 55.7306 29.9013 55.061 29.1727 54.2142C28.5819 53.5447 28.1684 52.7176 27.9518 51.8314C27.8533 51.4376 27.8139 50.9846 28.0502 50.6302C28.2078 50.3938 28.4638 50.256 28.6213 50.0197C29.0152 49.4289 28.641 48.5821 29.0349 47.9913C29.2318 47.6959 29.5863 47.5384 29.9407 47.4399C32.3629 46.6916 35.1987 47.5975 36.715 49.6258C36.8726 49.8424 37.0301 50.0788 37.2664 50.2166C37.8572 50.5908 38.8025 50.3151 39.1963 50.8862C39.3539 51.1028 39.3736 51.3588 39.5114 51.5951C39.925 52.2647 41.1459 52.2843 41.2247 53.0721C41.2838 53.6825 40.5551 53.9976 40.1613 54.4899Z" fill="white"/>
</g>
<defs>
<clipPath id="clip0_431_381">
<rect width="100" height="100" fill="white" transform="translate(0.5)"/>
</clipPath>
</defs>
</svg>
