<svg xmlns="http://www.w3.org/2000/svg" viewBox="0 0 24 24" width="24" height="24">
  <path d="M12 2C6.48 2 2 6.48 2 12s4.48 10 10 10 10-4.48 10-10S17.52 2 12 2zm0 18c-4.41 0-8-3.59-8-8s3.59-8 8-8 8 3.59 8 8-3.59 8-8 8zm0-13c-1.66 0-3 1.34-3 3s1.34 3 3 3 3-1.34 3-3-1.34-3-3-3zm0 10c-2.33 0-4.42 1.56-5.15 3.72-.02.07-.04.15-.06.22-.01.05-.02.1-.03.15-.02.07-.03.14-.05.21-.02.07-.04.14-.05.21-.02.07-.03.14-.05.21-.01.04-.03.07-.04.11-.02.03-.04.06-.06.09-.02.02-.04.04-.06.06-.02.02-.05.04-.07.05-.02.02-.04.03-.07.04-.02.02-.04.03-.07.05-.02.02-.04.03-.07.04-.02.02-.03.03-.05.04-.02.02-.03.03-.05.04-.02.02-.03.03-.05.04-.02.02-.03.03-.04.04-.02.02-.03.03-.04.04-.02.02-.02.03-.03.04-.02.02-.02.03-.03.04-.02.02-.02.03-.03.04-.02.02-.02.03-.03.04-.02.02-.02.03-.02.04z"/>
</svg>
