<svg width="101" height="100" viewBox="0 0 101 100" fill="none" xmlns="http://www.w3.org/2000/svg">
<g clip-path="url(#clip0_431_401)">
<path d="M41.1995 8.25116L33.6017 18.9L20.6793 27.4107L7.75702 18.9L15.3549 8.25116H41.1995Z" fill="#FFDD77" stroke="black" stroke-width="0.195312"/>
<path d="M48.7978 19.4078V64.4764H29.6863V14.6447L48.7978 19.4078Z" fill="#FFDD77" stroke="black" stroke-width="0.195312"/>
<path d="M33.8673 19.4086H8.47382V64.4766H33.8673V19.4086Z" fill="#F9F0B5" stroke="black" stroke-width="0.195312"/>
<path d="M92.6551 59.1659V69.8042H59.4999V59.1659L76.0776 54.9107L92.6551 54.8458V59.1659Z" fill="#FEAB75" stroke="black" stroke-width="0.195312"/>
<path d="M92.6551 56.9085V59.1659H59.4999V56.9085C59.4999 53.398 62.3721 50.5255 65.8829 50.5255H86.2723C89.7828 50.5255 92.6551 53.398 92.6551 56.9085Z" fill="#FEBB8E" stroke="black" stroke-width="0.195312"/>
<path d="M48.7978 59.1659H29.6873V69.385H48.7978V59.1659Z" fill="#FFCC3D" stroke="black" stroke-width="0.195312"/>
<path d="M41.7808 1.86816H16.0722V8.25116H41.7808V1.86816Z" fill="#F9F0B5" stroke="black" stroke-width="0.195312"/>
<path d="M41.6251 8.46387L49.223 19.1129H34.0271L41.6251 8.46387Z" fill="#FFBB02" stroke="black" stroke-width="0.195312"/>
<path d="M33.8673 59.1659H8.47382V69.385H33.8673V59.1659Z" fill="#FFDD77" stroke="black" stroke-width="0.195312"/>
<path d="M61.4786 59.1659L41.9105 75.1381L30.1296 72.8212C30.1296 72.8212 35.3083 66.4764 41.2765 59.1659L51.3775 54.9106L61.4786 59.1659Z" fill="#FF7A2F" stroke="black" stroke-width="0.195312"/>
<path d="M72.4934 41.4277C74.8977 43.8298 74.8977 47.7277 72.4934 50.132C72.3444 50.281 72.1891 50.4214 72.0296 50.5533L61.4786 59.1659H41.2765C49.3935 49.2234 58.9679 37.4937 58.97 37.4937C59.0999 37.332 59.2401 37.1767 59.3892 37.0277C61.7934 34.6234 65.6913 34.6234 68.0956 37.0277L72.4934 41.4277Z" fill="#FF9B5F" stroke="black" stroke-width="0.195312"/>
<path d="M69.9893 59.1659L50.4212 75.1381L38.6404 72.8212C38.6404 72.8212 43.819 66.4764 49.7872 59.1659L60.2872 54.9106L69.9893 59.1659Z" fill="#F06B22" stroke="black" stroke-width="0.195312"/>
<path d="M81.0041 41.4277C83.4084 43.8298 83.4084 47.7277 81.0041 50.132C80.8551 50.281 80.6998 50.4214 80.5403 50.5533L69.9893 59.1659H49.7872C57.9042 49.2234 67.4786 37.4937 67.4807 37.4937C67.6104 37.332 67.7508 37.1767 67.8999 37.0277C70.3042 34.6234 74.202 34.6234 76.6063 37.0277L81.0041 41.4277Z" fill="#FF7A2F" stroke="black" stroke-width="0.195312"/>
<path d="M98.8252 74.0594V98.1318H2.0166V74.0594L50.4208 67.6766L98.8252 74.0594Z" fill="#BF7447" stroke="black" stroke-width="0.195312"/>
<path d="M98.825 65.549H2.0166V74.0595H98.825V65.549Z" fill="#A0613C" stroke="black" stroke-width="0.195312"/>
<path d="M98.9041 57.5703C98.0229 57.5703 97.3084 58.2847 97.3084 59.1659V63.9532H3.6914V59.1659C3.6914 58.2847 2.97695 57.5703 2.0957 57.5703C1.21445 57.5703 0.5 58.2847 0.5 59.1659V98.1311C0.5 99.0124 1.21445 99.7268 2.0957 99.7268H98.9041C99.7853 99.7268 100.5 99.0124 100.5 98.1311V59.1659C100.5 58.2847 99.7853 57.5703 98.9041 57.5703ZM3.6914 96.5354V75.4425H8.4787C9.35994 75.4425 10.0744 74.728 10.0744 73.8468C10.0744 72.9655 9.35994 72.2511 8.4787 72.2511H3.6914V67.1446H97.3084V72.2511H14.8617C13.9804 72.2511 13.266 72.9655 13.266 73.8468C13.266 74.728 13.9804 75.4425 14.8617 75.4425H97.3084V96.5354H3.6914Z" fill="#1D2328" stroke="black" stroke-width="0.195312"/>
<path d="M40.7722 60.4022C41.0685 60.6442 41.4253 60.7618 41.7802 60.7618C42.2429 60.7618 42.7019 60.5616 43.0173 60.1753L60.7097 38.5019C61.2669 37.8193 61.1653 36.814 60.4827 36.2566C59.8001 35.6993 58.7948 35.8009 58.2374 36.4835L40.5451 58.1569C39.988 58.8395 40.0896 59.8448 40.7722 60.4022Z" fill="#1D2328" stroke="black" stroke-width="0.195312"/>
<path d="M48.6304 58.1569C47.8669 59.8669 49.6224 61.1968 51.1026 60.1751C51.1026 60.1751 68.5467 38.8056 68.7917 38.5056C68.7924 38.5043 68.7936 38.5033 68.7946 38.5019C68.8928 38.3814 68.9985 38.2648 69.1079 38.1552C70.8856 36.3777 73.7782 36.3777 75.5557 38.1552L79.9555 42.555C81.7332 44.3328 81.7332 47.2251 79.9555 49.0031C79.8459 49.1126 79.7293 49.2179 79.6094 49.3159L69.095 57.8991C68.487 58.3956 68.2848 59.2651 68.6741 59.9468C68.9799 60.4823 69.5212 60.7616 70.0676 60.7616C70.4225 60.7616 70.7796 60.6441 71.0756 60.4021L81.6278 51.7882C81.8307 51.6224 82.0274 51.4447 82.2122 51.2597C84.8366 48.6353 85.1805 44.5822 83.2469 41.5818C87.5545 37.7535 93.0395 35.6543 98.8488 35.641C99.66 35.639 100.385 35.0578 100.487 34.2531C100.61 33.2791 99.8537 32.4494 98.9041 32.4494C92.4463 32.4494 86.3375 34.7191 81.4875 38.8798L94.943 25.4244C95.5662 24.8012 95.5662 23.791 94.943 23.1678C94.3197 22.5445 93.3094 22.5445 92.6863 23.1678L79.2319 36.6222C83.3799 31.7863 85.6483 25.6992 85.6612 19.2627C85.6627 18.5014 85.1561 17.8037 84.411 17.6477C83.3789 17.4312 82.4698 18.2129 82.4698 19.207C82.4698 25.0365 80.3694 30.5427 76.529 34.8642C73.5286 32.9304 69.4756 33.2744 66.851 35.8986C66.6661 36.0836 66.4884 36.28 66.3225 36.483L66.3264 36.4861C66.2552 36.5656 66.1885 36.6472 66.1237 36.7265L48.6304 58.1569Z" fill="#1D2328" stroke="black" stroke-width="0.195312"/>
<path d="M8.47382 60.7616C9.35507 60.7616 10.0695 60.0472 10.0695 59.1659V20.4967H32.7226V59.1659C32.7226 60.0472 33.437 60.7616 34.3183 60.7616C35.1995 60.7616 35.914 60.0472 35.914 59.1659V19.4117L41.9165 10.999L46.4161 17.3051H42.1593C41.2781 17.3051 40.5636 18.0195 40.5636 18.9008C40.5636 19.782 41.2781 20.4965 42.1593 20.4965H47.9191V39.5984C47.9191 40.4796 48.6335 41.1941 49.5148 41.1941C50.396 41.1941 51.1105 40.4796 51.1105 39.5984V18.901C51.1105 18.8252 51.1034 18.7512 51.0931 18.6779C51.0909 18.6629 51.0888 18.6476 51.0862 18.6326C51.0737 18.5586 51.0571 18.4857 51.0347 18.4154C51.0343 18.4139 51.0333 18.4123 51.0329 18.4107C51.0101 18.3398 50.9813 18.2719 50.9493 18.2058C50.9442 18.1955 50.9396 18.1848 50.9343 18.1744C50.9005 18.1086 50.8626 18.0455 50.8204 17.9853C50.8179 17.9816 50.8161 17.9777 50.8136 17.974L43.512 7.74083V1.86877C43.512 0.987523 42.7976 0.273071 41.9163 0.273071H16.072C15.1908 0.273071 14.4763 0.987523 14.4763 1.86877V7.74063L7.1746 17.9742C7.17187 17.9781 7.17011 17.9822 7.16738 17.9861C7.12538 18.0459 7.08788 18.1086 7.05409 18.1742C7.04863 18.1848 7.04394 18.1957 7.03847 18.2066C7.00663 18.2726 6.97812 18.3402 6.95527 18.4109C6.95468 18.4127 6.9539 18.4142 6.95331 18.416C6.93105 18.4861 6.91445 18.559 6.90175 18.633C6.89921 18.648 6.89706 18.6633 6.89492 18.6783C6.88476 18.7514 6.87753 18.8254 6.87753 18.9014V59.1659C6.87812 60.0472 7.59238 60.7616 8.47382 60.7616ZM33.4966 17.3053H11.5724L16.8935 9.84766H38.8175L33.4966 17.3053ZM40.321 3.46467V6.65607H17.6679V3.46467H40.321Z" fill="#1D2328" stroke="black" stroke-width="0.195312"/>
<path d="M92.5211 60.7618C93.4024 60.7618 94.1168 60.0474 94.1168 59.1661V56.5146C94.1168 53.1962 92.0196 50.1886 88.8981 49.0304C88.0715 48.724 87.1534 49.1451 86.8467 49.9712C86.5401 50.7976 86.9614 51.716 87.7875 52.0226C89.6641 52.7189 90.9252 54.5241 90.9252 56.5148V59.1663C90.9254 60.0474 91.6399 60.7618 92.5211 60.7618Z" fill="#1D2328" stroke="black" stroke-width="0.195312"/>
</g>
<defs>
<clipPath id="clip0_431_401">
<rect width="100" height="100" fill="white" transform="translate(0.5)"/>
</clipPath>
</defs>
</svg>
